<svg xmlns="http://www.w3.org/2000/svg" xmlns:xlink="http://www.w3.org/1999/xlink" width="27" height="24" viewBox="0 0 27 24"><defs><path id="ijvua" d="M1381.78 62.05c.2.24.28.53.23.87l-.97 5.25a.98.98 0 0 1-.39.68c-.23.18-.49.26-.77.26h-14.08l-.28 1.5h13.42c.32 0 .6.1.83.32.24.22.36.5.36.81 0 .32-.12.6-.36.81a1.2 1.2 0 0 1-.83.33h-14.84a1.2 1.2 0 0 1-.91-.41 1.13 1.13 0 0 1-.28-.94l.63-3.28-.96-9.22-2.75-.82c-.32-.1-.55-.28-.7-.55a1.14 1.14 0 0 1-.08-.87c.1-.3.3-.52.6-.66.29-.14.6-.17.9-.09l3.5 1.07c.22.06.4.18.55.36.14.17.23.37.26.6l.2 1.83 15.9 1.7c.36.04.63.2.82.45zm-15.87 11.45c.5 0 .94.17 1.3.5.35.35.52.76.52 1.24s-.17.9-.53 1.24c-.35.35-.79.52-1.3.52-.5 0-.93-.17-1.29-.52a1.67 1.67 0 0 1-.53-1.24c0-.48.17-.9.53-1.23.36-.34.79-.5 1.3-.5zm10.84 0c.51 0 .94.17 1.3.5.35.35.53.76.53 1.24s-.18.9-.53 1.24c-.36.35-.79.52-1.3.52-.5 0-.94-.17-1.3-.52a1.67 1.67 0 0 1-.53-1.24c0-.48.18-.9.54-1.23.35-.34.78-.5 1.3-.5z"/></defs><g><g transform="translate(-1357 -54)"><use fill="#ca202e" xlink:href="#ijvua"/></g></g></svg>