<svg xmlns="http://www.w3.org/2000/svg" xmlns:xlink="http://www.w3.org/1999/xlink" width="50" height="47" viewBox="0 0 50 47"><defs><path id="i81ha" d="M1235 3094h-2.35v29.53a3.46 3.46 0 0 1-3.45 3.47h-35.4a3.46 3.46 0 0 1-3.45-3.47V3094H1188v-9.1c0-1.05.85-1.9 1.89-1.9h43.22a1.9 1.9 0 0 1 1.89 1.9zm-36.86 31.43a7.07 7.07 0 0 0-6.22-6.24v4.34c0 1.05.84 1.9 1.88 1.9zm32.94-6.24a7.07 7.07 0 0 0-6.22 6.24h4.34a1.9 1.9 0 0 0 1.88-1.9zm0-25.19h-39.16v23.61a8.64 8.64 0 0 1 7.79 7.82h23.58a8.64 8.64 0 0 1 7.8-7.82zm2.35-9.1a.32.32 0 0 0-.32-.33h-43.22a.32.32 0 0 0-.32.32v7.54h43.86zm-38.38 2.81a.78.78 0 1 1 0 1.57.78.78 0 0 1 0-1.57zm-2.35-2.35a.78.78 0 1 1 0 1.57.78.78 0 0 1 0-1.57zm4.7 0a.78.78 0 1 1 0 1.57.78.78 0 0 1 0-1.57zm-4.7 4.71a.78.78 0 1 1 0 1.57.78.78 0 0 1 0-1.57zm4.7 0a.78.78 0 1 1 0 1.57.78.78 0 0 1 0-1.57zm2.35-2.36a.78.78 0 1 1 0 1.57.78.78 0 0 1 0-1.57zm4.7 0a.78.78 0 1 1 0 1.57.78.78 0 0 1 0-1.57zm-2.35-2.35a.78.78 0 1 1 0 1.57.78.78 0 0 1 0-1.57zm4.7 0a.78.78 0 1 1 0 1.57.78.78 0 0 1 0-1.57zm-4.7 4.71a.78.78 0 1 1 0 1.57.78.78 0 0 1 0-1.57zm4.7 0a.78.78 0 1 1 0 1.57.78.78 0 0 1 0-1.57zm2.35-2.36a.78.78 0 1 1 0 1.57.78.78 0 0 1 0-1.57zm4.7 0a.78.78 0 1 1 0 1.57.78.78 0 0 1 0-1.57zm-2.35-2.35a.78.78 0 1 1 0 1.57.78.78 0 0 1 0-1.57zm4.7 0a.78.78 0 1 1 0 1.57.78.78 0 0 1 0-1.57zm-4.7 4.71a.78.78 0 1 1 0 1.57.78.78 0 0 1 0-1.57zm4.7 0a.78.78 0 1 1 0 1.57.78.78 0 0 1 0-1.57zm2.35-2.36a.78.78 0 1 1 0 1.57.78.78 0 0 1 0-1.57zm4.7 0a.78.78 0 1 1 0 1.57.78.78 0 0 1 0-1.57zm-2.35-2.35a.78.78 0 1 1 0 1.57.78.78 0 0 1 0-1.57zm4.7 0a.78.78 0 1 1 0 1.57.78.78 0 0 1 0-1.57zm-4.7 4.71a.78.78 0 1 1 0 1.57.78.78 0 0 1 0-1.57zm4.7 0a.78.78 0 1 1 0 1.57.78.78 0 0 1 0-1.57zm2.35-2.36a.78.78 0 1 1 0 1.57.78.78 0 0 1 0-1.57zm2.35-2.35a.78.78 0 1 1 0 1.57.78.78 0 0 1 0-1.57zm0 4.71a.78.78 0 1 1 0 1.57.78.78 0 0 1 0-1.57zm-25.85 12.96v-1.17a.78.78 0 1 1 1.57 0v1.17c0 .65.52 1.18 1.18 1.18h8.6c.65 0 1.18-.53 1.18-1.18v-1.17a.78.78 0 1 1 1.57 0v1.17a2.75 2.75 0 0 1-2.75 2.76h-8.6a2.75 2.75 0 0 1-2.75-2.76z"/></defs><g><g transform="translate(-1186 -3081)"><use fill="#af5f56" xlink:href="#i81ha"/></g></g></svg>