<svg xmlns="http://www.w3.org/2000/svg" xmlns:xlink="http://www.w3.org/1999/xlink" width="21" height="18" viewBox="0 0 21 18"><defs><path id="v112a" d="M49 143a1 1 0 0 1 1-1h17a1 1 0 0 1 1 1v.47a1 1 0 0 1-1 1H50a1 1 0 0 1-1-1z"/><path id="v112b" d="M49 149.75a1 1 0 0 1 1-1h17a1 1 0 0 1 1 1v.5a1 1 0 0 1-1 1H50a1 1 0 0 1-1-1z"/><path id="v112c" d="M49 156.53a1 1 0 0 1 1-1h17a1 1 0 0 1 1 1v.47a1 1 0 0 1-1 1H50a1 1 0 0 1-1-1z"/></defs><g><g transform="translate(-48 -141)"><use fill="#cf9f9a" xlink:href="#v112a"/></g><g transform="translate(-48 -141)"><use fill="#cf9f9a" xlink:href="#v112b"/></g><g transform="translate(-48 -141)"><use fill="#cf9f9a" xlink:href="#v112c"/></g></g></svg>