<svg xmlns="http://www.w3.org/2000/svg" xmlns:xlink="http://www.w3.org/1999/xlink" width="58" height="40" viewBox="0 0 58 40"><defs><path id="n8p3a" d="M726.96 2964.03a4.99 4.99 0 0 1-5 4.97 5.13 5.13 0 0 1-3.58-1.46 4.86 4.86 0 0 1 0-7.03 5.11 5.11 0 0 1 3.59-1.46c2.75 0 4.99 2.24 4.99 4.98zm-2.24 0a2.76 2.76 0 0 0-2.75-2.77 2.84 2.84 0 0 0-2.85 2.77c0 1.5 1.3 2.76 2.85 2.76a2.76 2.76 0 0 0 2.75-2.76zm1.92-18.55c.23.21.36.51.36.82v6.07c0 .6-.5 1.1-1.12 1.1h-9.11c-.62 0-1.12-.5-1.12-1.1v-9.07c0-.6.5-1.1 1.12-1.1h5.74c.28 0 .55.1.75.29zm-1.88 1.3l-2.68-2.38h-4.2v6.86h6.88zm-25.15 17.25a4.99 4.99 0 0 1-5 4.97c-1.34 0-2.6-.52-3.58-1.46a4.86 4.86 0 0 1 0-7.03 5.11 5.11 0 0 1 3.59-1.46c2.75 0 5 2.24 5 4.98zm-2.24 0a2.76 2.76 0 0 0-2.75-2.77 2.84 2.84 0 0 0-2.85 2.77c0 1.5 1.3 2.76 2.85 2.76a2.76 2.76 0 0 0 2.75-2.76zm-9.1-2.51c0 .6-.5 1.1-1.12 1.1h-3.37c-.62 0-1.12-.5-1.12-1.1v-4.05c0-.6.5-1.1 1.12-1.1.61 0 1.12.5 1.12 1.1v2.94h2.25c.61 0 1.12.5 1.12 1.1zm3.43-6.03h-13.58c-.62 0-1.12-.5-1.12-1.1 0-.6.5-1.1 1.12-1.1h13.58c.62 0 1.12.5 1.12 1.1 0 .62-.5 1.1-1.12 1.1zm-12.42-6.2c0-.61.5-1.1 1.12-1.1h.02l13.58.08c.62 0 1.12.5 1.1 1.11 0 .61-.5 1.1-1.12 1.1l-13.59-.08a1.1 1.1 0 0 1-1.1-1.12zm2.28-5.01c0-.61.5-1.1 1.12-1.1h13.58c.62 0 1.12.49 1.12 1.1 0 .6-.5 1.1-1.12 1.1h-13.58c-.62 0-1.12-.5-1.12-1.1zm50.44.47l-.09 16.76c0 .6-.5 1.1-1.12 1.1h-2.27c-.62 0-1.12-.5-1.12-1.11 0-.61.5-1.1 1.12-1.1h1.16l.08-15.14-7.3-5.97h-9.03v21.12h2.25c.62 0 1.12.5 1.12 1.1 0 .62-.5 1.11-1.12 1.11h-13.67c-.62 0-1.12-.5-1.12-1.1 0-.61.5-1.1 1.12-1.1h9.18v-26.21h-26.3v6.98a1.12 1.12 0 0 1-2.24 0v-8.09c0-.6.5-1.1 1.13-1.1h28.52c.62 0 1.12.5 1.12 1.1v3.98h9.43c.27 0 .51.1.72.26l8.02 6.55c.25.21.4.53.41.86z"/></defs><g><g transform="translate(-675 -2930)"><use fill="#af5f56" xlink:href="#n8p3a"/></g></g></svg>