<svg xmlns="http://www.w3.org/2000/svg" width="24.125" height="24.406" viewBox="0 0 24.125 24.406">
  <metadata><?xpacket begin="﻿" id="W5M0MpCehiHzreSzNTczkc9d"?>
<x:xmpmeta xmlns:x="adobe:ns:meta/" x:xmptk="Adobe XMP Core 5.6-c142 79.160924, 2017/07/13-01:06:39        ">
   <rdf:RDF xmlns:rdf="http://www.w3.org/1999/02/22-rdf-syntax-ns#">
      <rdf:Description rdf:about=""/>
   </rdf:RDF>
</x:xmpmeta>
                                                                                                    
                                                                                                    
                                                                                                    
                                                                                                    
                                                                                                    
                                                                                                    
                                                                                                    
                                                                                                    
                                                                                                    
                                                                                                    
                                                                                                    
                                                                                                    
                                                                                                    
                                                                                                    
                                                                                                    
                                                                                                    
                                                                                                    
                                                                                                    
                                                                                                    
                                                                                                    
                           
<?xpacket end="w"?></metadata>
<defs>
    <style>
      .cls-1 {
        fill: #fff;
        fill-rule: evenodd;
      }
    </style>
  </defs>
  <path id="_" data-name="@" class="cls-1" d="M50.141,18.986A9.476,9.476,0,0,0,46.2,15.164a12.3,12.3,0,0,0-5.807-1.343,13.4,13.4,0,0,0-6.819,1.709A11.7,11.7,0,0,0,29,20.247a14.005,14.005,0,0,0-1.6,6.695q0,5.314,3.14,8.3t8.755,2.985a17.609,17.609,0,0,0,7.019-1.358V34a22.628,22.628,0,0,1-3.694,1.023,18.843,18.843,0,0,1-3.443.351,8.5,8.5,0,0,1-6.317-2.2,8.607,8.607,0,0,1-2.18-6.322,11.858,11.858,0,0,1,1.175-5.4,8.249,8.249,0,0,1,3.377-3.575,10.406,10.406,0,0,1,5.187-1.239,8.488,8.488,0,0,1,4.1.97A6.754,6.754,0,0,1,47.3,20.426a8.839,8.839,0,0,1,.99,4.247,9.927,9.927,0,0,1-.562,3.65,1.767,1.767,0,0,1-1.507,1.4q-1.123,0-1.123-2.075l0.34-7.3a15.291,15.291,0,0,0-2.52-.59,17.726,17.726,0,0,0-2.8-.246,7.1,7.1,0,0,0-5.172,1.926,6.758,6.758,0,0,0-1.98,5.075,6.067,6.067,0,0,0,1.507,4.351A5.41,5.41,0,0,0,38.6,32.45a5.048,5.048,0,0,0,4.064-1.926H42.9a3.028,3.028,0,0,0,1.212,1.4,3.556,3.556,0,0,0,1.936.53,4.417,4.417,0,0,0,2.882-1.015,6.516,6.516,0,0,0,1.921-2.8,10.966,10.966,0,0,0,.68-3.933A11.5,11.5,0,0,0,50.141,18.986Zm-12.716,4.4A3.631,3.631,0,0,1,40.3,22.225a8.018,8.018,0,0,1,1.7.164l-0.192,3.3a6.039,6.039,0,0,1-.842,3.082,2.353,2.353,0,0,1-2.024.948q-2.542,0-2.542-3.15A4.637,4.637,0,0,1,37.426,23.389Z" transform="translate(-27.406 -13.813)"/>
</svg>
