<svg xmlns="http://www.w3.org/2000/svg" xmlns:xlink="http://www.w3.org/1999/xlink" width="24" height="22" viewBox="0 0 24 22"><defs><path id="wx6qa" d="M479.86 155.35a.56.56 0 0 1-.78.05l-1.7-1.51v9.37c0 .97-.61 1.74-1.4 1.74h-2.96c-.73 0-1.32-.59-1.32-1.3v-4.98a.2.2 0 0 0-.2-.2h-3a.2.2 0 0 0-.2.2v4.97c0 .72-.59 1.31-1.31 1.31H464.02a1.4 1.4 0 0 1-1.4-1.4v-9.77l-1.7 1.52c-.1.09-.23.14-.36.14a.55.55 0 0 1-.37-.97l9.4-8.38c.23-.2.55-.19.76.01l.05.04 9.42 8.38c.22.2.24.55.04.78zm-3.6-2.45l-6.29-5.61-6.24 5.55v10.77c0 .16.13.28.28.28h2.97a.2.2 0 0 0 .2-.2v-4.97c0-.72.6-1.3 1.32-1.3h3c.72 0 1.31.58 1.31 1.3v4.96c0 .12.09.2.2.2h2.97c.1 0 .29-.24.29-.63z"/></defs><g><g transform="translate(-458 -144)"><use fill="#cf9f9a" xlink:href="#wx6qa"/></g></g></svg>