<svg xmlns="http://www.w3.org/2000/svg" xmlns:xlink="http://www.w3.org/1999/xlink" width="50" height="59" viewBox="0 0 50 59"><defs><path id="p1woa" d="M1161.77 2836.79a.88.88 0 0 1-.9.26l-7.13-2.1-3.59 6.59a.88.88 0 0 1-1.59-.1l-7.99-19.5a17.67 17.67 0 0 1-14.58-5.65l-7.59 18.53 6.05-1.78c.4-.11.82.06 1.02.43l3.04 5.58 6.15-15a.88.88 0 0 1 1.15-.5.9.9 0 0 1 .48 1.18l-6.85 16.72a.88.88 0 0 1-.82.55.88.88 0 0 1-.77-.46l-3.59-6.58-7.13 2.09c-.33.1-.68 0-.9-.26a.9.9 0 0 1-.16-.94l8.64-21.1c-2.2-3-3.52-6.72-3.52-10.75 0-9.92 7.99-18 17.81-18 9.82 0 17.8 8.08 17.8 18 0 8.77-6.21 16.08-14.42 17.68l7.11 17.37 3.04-5.58a.88.88 0 0 1 1.02-.43l6.04 1.78-6.62-16.19a.9.9 0 0 1 .47-1.16.88.88 0 0 1 1.16.48l7.33 17.9a.9.9 0 0 1-.16.94zm-22.77-16.57c8.84 0 16.04-7.27 16.04-16.22 0-8.94-7.2-16.21-16.04-16.21a16.15 16.15 0 0 0-16.04 16.21c0 8.95 7.2 16.22 16.04 16.22zm10-18.67l-4.22 4.35.89 6.03a.9.9 0 0 1-.36.86.88.88 0 0 1-.91.07l-5.4-2.71-5.4 2.71a.88.88 0 0 1-.91-.07.9.9 0 0 1-.36-.86l.9-6.03-4.23-4.35a.9.9 0 0 1 .48-1.5l5.95-1.01 2.79-5.41a.88.88 0 0 1 1.56 0l2.79 5.4 5.95 1.01c.32.06.6.3.7.61a.9.9 0 0 1-.22.9zm-2.45-.03l-4.7-.8a.88.88 0 0 1-.64-.46l-2.21-4.28-2.2 4.28a.88.88 0 0 1-.64.46l-4.71.8 3.34 3.45c.2.2.29.48.25.76l-.7 4.77 4.27-2.15a.88.88 0 0 1 .78 0l4.28 2.15-.7-4.77a.9.9 0 0 1 .24-.76zm6.6 4.39a14.36 14.36 0 0 1-14.15 12.53 14.37 14.37 0 0 1-14.27-14.44c0-7.95 6.4-14.43 14.27-14.43 7.13 0 13.21 5.39 14.15 12.53a.9.9 0 0 1-.76 1 .89.89 0 0 1-1-.76 12.58 12.58 0 0 0-12.39-10.98c-6.9 0-12.5 5.67-12.5 12.64 0 6.98 5.6 12.65 12.5 12.65 6.25 0 11.58-4.72 12.4-10.97a.89.89 0 0 1 .99-.77.9.9 0 0 1 .76 1z"/></defs><g><g transform="translate(-1114 -2784)"><use fill="#af5f56" xlink:href="#p1woa"/></g></g></svg>