<svg xmlns="http://www.w3.org/2000/svg" xmlns:xlink="http://www.w3.org/1999/xlink" width="57" height="38" viewBox="0 0 57 38"><defs><path id="jj7va" d="M795.49 3245.12a.8.8 0 0 1-.8.8h-28.72a.8.8 0 0 1-.8-.8c0-.44.36-.8.8-.8h28.73c.44 0 .79.36.79.8zm-9.87-19.31a4.37 4.37 0 0 1 8.75 0 4.37 4.37 0 0 1-8.75 0zm1.58 0a2.78 2.78 0 0 0 2.8 2.76c1.53 0 2.78-1.24 2.78-2.76a2.78 2.78 0 0 0-2.79-2.76 2.78 2.78 0 0 0-2.79 2.76zm25.8 17.29c0 .8-.33 1.5-.86 2.02.53.51.86 1.23.86 2.02v1.04a2.83 2.83 0 0 1-2.84 2.82H764.9a5.88 5.88 0 0 1-5.9-5.85v-.06c0-2.77 1.96-5.1 4.59-5.7a5.81 5.81 0 0 1-2.03-4.4v-.06c0-1.76.79-3.33 2.03-4.4a5.87 5.87 0 0 1-4.59-5.7v-.06a5.88 5.88 0 0 1 5.18-5.8 2.43 2.43 0 0 1 .65-2.26c.46-.46 1.07-.71 1.72-.71h41.8a2.42 2.42 0 0 1 2.37 2.97c1.3.26 2.28 1.4 2.28 2.77v1.03c0 .8-.33 1.51-.87 2.02.54.52.87 1.23.87 2.03v1.03a2.83 2.83 0 0 1-2.84 2.82c.18.37.28.79.28 1.23v1.03c0 .8-.33 1.51-.86 2.03.53.51.86 1.23.86 2.02v1.04c0 .44-.1.85-.28 1.22a2.83 2.83 0 0 1 2.84 2.82zm-1.58-16.28c0-.68-.56-1.23-1.26-1.23h-5.58l-3.52 3.5h9.1c.7 0 1.26-.56 1.26-1.24zm-7.51 8.14c0-.44.35-.8.8-.8h2.9c.68 0 1.25-.55 1.25-1.23v-1.03c0-.68-.57-1.23-1.26-1.23h-8.14l-3.52 3.5h5.65a.8.8 0 0 1 0 1.6h-7.25l-3.52 3.47h16.78c.7 0 1.26-.55 1.26-1.22v-1.04c0-.68-.56-1.23-1.26-1.23h-2.9a.8.8 0 0 1-.79-.8zm5.79-14.45l-3.52 3.49h3.98c.7 0 1.26-.55 1.26-1.23v-1.03c0-.68-.57-1.23-1.26-1.23zm-13.29-2.32a2.78 2.78 0 0 0 2.8 2.76 2.78 2.78 0 0 0 2.72-3.36h-5.45c-.04.2-.07.4-.07.6zm-18.42 0a2.78 2.78 0 0 0 2.79 2.76 2.78 2.78 0 0 0 2.73-3.36h-5.46c-.04.2-.06.4-.06.6zm-12.29.23c0 .23.09.43.25.6l3.65 3.62a4.38 4.38 0 0 1 7.36 3.17c0 1.11-.43 2.17-1.18 2.97l1.75 1.74a4.38 4.38 0 0 1 7.62 2.91c0 1.25-.53 2.4-1.43 3.22l3.56 3.54c.1.1.25.1.34 0l21.33-21.18a.82.82 0 0 0 0-1.17.86.86 0 0 0-.6-.25h-4.81a4.36 4.36 0 0 1-4.33 4.95 4.37 4.37 0 0 1-4.34-4.95h-9.76a4.37 4.37 0 1 1-8.67 0h-9.89a.86.86 0 0 0-.6.25.82.82 0 0 0-.25.58zm15.08 12.25c-.83 0-1.6.36-2.12.96l.1.1 3.83 3.8a2.75 2.75 0 0 0-1.81-4.86zm-8.2-7.62c-.69 0-1.35.26-1.86.7l3.94 3.91a2.75 2.75 0 0 0-2.07-4.61zm-7.68 6.03h8.94l-3.52-3.5h-5.38a.8.8 0 0 1-.79-.79c0-.44.36-.8.8-.8h3.77l-3.52-3.48h-.3a4.3 4.3 0 0 0-4.32 4.26v.05a4.3 4.3 0 0 0 4.32 4.26zm2.56 10.16h16.61l-2.13-2.12-1.38-1.37h-12.51a.8.8 0 0 1-.8-.8c0-.43.36-.79.8-.79h10.9l-1.07-1.06-2.44-2.43h-7.98a4.3 4.3 0 0 0-4.32 4.26v.06a4.3 4.3 0 0 0 4.32 4.25zm43.96 2.82c0-.67-.57-1.22-1.26-1.22h-20.94l-.5.48a1.81 1.81 0 0 1-2.55 0l-.5-.48H764.9a4.3 4.3 0 0 0-4.32 4.25v.06a4.3 4.3 0 0 0 4.32 4.26h45.26c.7 0 1.26-.55 1.26-1.23v-1.04c0-.67-.56-1.22-1.26-1.22h-12.21a.8.8 0 0 1-.8-.8c0-.44.36-.8.8-.8h12.21c.7 0 1.26-.55 1.26-1.22z"/></defs><g><g transform="translate(-757 -3214)"><use fill="#af5f56" xlink:href="#jj7va"/></g></g></svg>