<svg xmlns="http://www.w3.org/2000/svg" xmlns:xlink="http://www.w3.org/1999/xlink" width="19" height="29" viewBox="0 0 19 29"><defs><path id="ynqxa" d="M584.5 3924.85a6.36 6.36 0 0 1-8.2 3.9 6.57 6.57 0 0 1-3.81-8.36 6.36 6.36 0 0 1 8.2-3.9 6.57 6.57 0 0 1 3.82 8.36zm-3.44-1.2a2.74 2.74 0 0 0-1.6-3.49 2.65 2.65 0 0 0-3.41 1.63c-.5 1.41.21 2.97 1.6 3.49a2.65 2.65 0 0 0 3.41-1.63zm3.62 16.8a1.7 1.7 0 0 1-2.44.06l-3.77-3.68-3.77 3.7a1.66 1.66 0 0 1-2.38-.06 1.75 1.75 0 0 1 .05-2.44l3.74-3.66a11.95 11.95 0 0 1-4.42-1.84 1.84 1.84 0 0 1-.39-2.36c.5-.82 1.54-1.1 2.37-.63v-.02a9.7 9.7 0 0 0 5.01 1.45 9.72 9.72 0 0 0 4.7-1.4h.01a1.76 1.76 0 0 1 2.36.66c.47.79.28 1.79-.4 2.35 0 .02-.03.03-.05.04l-.14.1a12.75 12.75 0 0 1-4.21 1.66l3.67 3.58c.7.67.72 1.79.06 2.5zm-1.3-10.89h.01zm-9.71-.04z"/></defs><g><g transform="translate(-569 -3914)"><use fill="#fff" xlink:href="#ynqxa"/></g></g></svg>