<svg xmlns="http://www.w3.org/2000/svg" xmlns:xlink="http://www.w3.org/1999/xlink" width="35" height="54" viewBox="0 0 35 54"><defs><path id="esb2a" d="M1143 3211.23v44.54a3.2 3.2 0 0 1-3.15 3.23h-25.7a3.2 3.2 0 0 1-3.15-3.23v-44.54a3.2 3.2 0 0 1 3.14-3.23h25.71a3.2 3.2 0 0 1 3.15 3.23zm-30.42 38.61h28.84v-33.73h-28.84zm0-38.61v3.8h28.84v-3.8c0-.89-.7-1.61-1.57-1.61h-25.7a1.6 1.6 0 0 0-1.57 1.6zm28.84 44.54v-4.85h-28.84v4.85c0 .89.7 1.61 1.56 1.61h25.71a1.6 1.6 0 0 0 1.57-1.61zm-11.84-1.48a2.62 2.62 0 0 1-2.58 2.65 2.62 2.62 0 0 1-2.58-2.65 2.62 2.62 0 0 1 2.58-2.65 2.62 2.62 0 0 1 2.58 2.65zm-1.05 0c0-.87-.69-1.57-1.53-1.57-.84 0-1.53.7-1.53 1.57 0 .86.69 1.57 1.53 1.57.84 0 1.53-.7 1.53-1.57zm-5.63-41.7c0-.29.24-.53.53-.53h7.14c.3 0 .53.24.53.54 0 .3-.24.54-.53.54h-7.14a.53.53 0 0 1-.53-.54zm-1.74.4a.55.55 0 0 1 0-.77.52.52 0 0 1 .74 0 .55.55 0 0 1 0 .76c-.1.1-.23.16-.36.16a.52.52 0 0 1-.38-.16z"/></defs><g><g transform="translate(-1109 -3206)"><use fill="#af5f56" xlink:href="#esb2a"/></g></g></svg>