<svg xmlns="http://www.w3.org/2000/svg" xmlns:xlink="http://www.w3.org/1999/xlink" width="57" height="57" viewBox="0 0 57 57"><defs><path id="gdvva" d="M730.83 3105.84a2.25 2.25 0 0 0-.23 1.86l.9 2.78a4.3 4.3 0 0 1-1.91 5.04l-2.48 1.47c-.57.34-.95.9-1.07 1.56l-.48 2.86a4.3 4.3 0 0 1-4.04 3.59l-2.84.14c-.66.03-1.27.35-1.68.88l-1.73 2.28a4.34 4.34 0 0 1-5.26 1.3l-2.56-1.2c-.6-.28-1.3-.28-1.9 0l-2.57 1.2a4.34 4.34 0 0 1-5.26-1.3l-1.73-2.28a2.24 2.24 0 0 0-1.67-.88l-2.84-.14a4.3 4.3 0 0 1-4.04-3.6l-.49-2.85a2.24 2.24 0 0 0-1.07-1.56l-2.47-1.47a4.3 4.3 0 0 1-1.9-5.04l.89-2.78c.2-.62.11-1.3-.23-1.86l-1.53-2.49a4.3 4.3 0 0 1 .65-5.34l2.07-2.04c.46-.46.7-1.1.66-1.76l-.2-2.9a4.3 4.3 0 0 1 3.05-4.45l2.74-.82c.63-.2 1.15-.65 1.41-1.26l1.15-2.65a4.34 4.34 0 0 1 4.79-2.52l2.77.55c.66.13 1.33-.04 1.85-.46l2.2-1.78a4.34 4.34 0 0 1 5.43 0l2.2 1.78c.53.42 1.2.59 1.85.46l2.78-.55c1.97-.38 3.99.68 4.79 2.52l1.15 2.65c.26.6.77 1.07 1.4 1.26l2.74.82a4.3 4.3 0 0 1 3.06 4.44l-.2 2.91c-.05.66.2 1.3.66 1.76l2.07 2.04a4.3 4.3 0 0 1 .64 5.34zm-.24-3.57c.55-.9.41-2.04-.34-2.78l-2.06-2.04a4.31 4.31 0 0 1-1.28-3.38l.2-2.91c.08-1.06-.57-2.01-1.58-2.32l-2.74-.82a4.3 4.3 0 0 1-2.71-2.42l-1.15-2.64a2.26 2.26 0 0 0-2.5-1.31l-2.77.54a4.3 4.3 0 0 1-3.54-.88l-2.21-1.78c-.82-.66-2-.66-2.82 0l-2.21 1.78a4.3 4.3 0 0 1-3.55.88l-2.77-.54a2.26 2.26 0 0 0-2.5 1.31l-1.14 2.64a4.3 4.3 0 0 1-2.72 2.42l-2.73.82a2.24 2.24 0 0 0-1.6 2.32l.21 2.9a4.32 4.32 0 0 1-1.27 3.39l-2.07 2.04a2.24 2.24 0 0 0-.33 2.78l1.52 2.48c.66 1.08.82 2.38.44 3.59l-.9 2.78c-.32 1 .09 2.08 1 2.62l2.47 1.47a4.31 4.31 0 0 1 2.05 2.99l.49 2.86a2.23 2.23 0 0 0 2.1 1.87l2.84.14a4.3 4.3 0 0 1 3.22 1.7l1.73 2.28a2.26 2.26 0 0 0 2.74.67l2.56-1.2a4.3 4.3 0 0 1 3.65 0l2.57 1.2c.95.45 2.1.16 2.74-.67l1.73-2.28a4.3 4.3 0 0 1 3.22-1.7l2.83-.14a2.23 2.23 0 0 0 2.1-1.87l.5-2.86a4.31 4.31 0 0 1 2.05-2.99l2.47-1.47a2.24 2.24 0 0 0 1-2.62l-.9-2.78a4.32 4.32 0 0 1 .43-3.59zm-36.52-11.25l-.02.01a1.03 1.03 0 1 1-1.45-1.47l.01-.01a1.03 1.03 0 1 1 1.46 1.47zm30.54 20.14a1.04 1.04 0 1 1-1.9-.81 17.55 17.55 0 0 0-3.77-19.32 17.57 17.57 0 0 0-21.42-2.7 1.04 1.04 0 1 1-1.06-1.78 19.63 19.63 0 0 1 29.37 13.32c.71 3.82.29 7.72-1.22 11.29zm-4.21 6.24l-.02.02a1.03 1.03 0 0 1-1.46-.01c-.4-.4-.4-1.06 0-1.47l.02-.01a1.04 1.04 0 1 1 1.46 1.47zm-3.86 3a19.58 19.58 0 0 1-23.95-3 19.68 19.68 0 0 1-4.2-21.59 1.03 1.03 0 1 1 1.9.8 17.55 17.55 0 0 0 3.77 19.32 17.58 17.58 0 0 0 21.42 2.7 1.03 1.03 0 1 1 1.06 1.78zm-5.37-23.99l-9.6 17.01a1.03 1.03 0 1 1-1.8-1.02l9.6-17a1.03 1.03 0 1 1 1.8 1.01zm5.91 13.95a4.35 4.35 0 1 1-8.7 0 4.35 4.35 0 0 1 8.7 0zm-2.07 0a2.28 2.28 0 1 0-4.56 0 2.28 2.28 0 0 0 4.56 0zm-10.4-13.76a4.35 4.35 0 1 1-8.7 0 4.35 4.35 0 0 1 8.7 0zm-2.07 0a2.28 2.28 0 1 0-4.56 0 2.28 2.28 0 0 0 4.56 0z"/></defs><g><g transform="translate(-678 -3075)"><use fill="#af5f56" xlink:href="#gdvva"/></g></g></svg>