<svg xmlns="http://www.w3.org/2000/svg" xmlns:xlink="http://www.w3.org/1999/xlink" width="20" height="20" viewBox="0 0 20 20"><defs><path id="vi8ba" d="M307.67 22.8a.39.39 0 0 1-.08-.54l3.27-4.48H302a.39.39 0 1 1 0-.77h8.85l-3.27-4.48a.39.39 0 0 1 .63-.45l3.7 5.07a.39.39 0 0 1 0 .47l-3.7 5.1a.39.39 0 0 1-.55.08zm-11.75 2.43h9.97a.39.39 0 1 1 0 .77h-10.35a.39.39 0 0 1-.4-.39V9.17c0-.21.18-.38.4-.38h10.35a.39.39 0 1 1 0 .77h-9.97z"/></defs><g><g transform="translate(-294 -7)"><use xlink:href="#vi8ba"/></g></g></svg>