<svg xmlns="http://www.w3.org/2000/svg" xmlns:xlink="http://www.w3.org/1999/xlink" width="25" height="25" viewBox="0 0 25 25"><defs><path id="m2sta" d="M226.23 69.83l-.07-.08c-3.39-3.38-5.27-7.72-5.17-11.9v-.16l.1-.12a11.09 11.09 0 0 1 4.72-3.5c.13-.05.28-.08.44-.08.5 0 1.33.27 1.5.75a62.4 62.4 0 0 1 1.63 5.05c.1.4-.03 1.35-.49 1.64l-1.67 1.06c-.11.07-.16.2-.18.3-.05.28.05.64.28.95.65.9 1.42 1.8 2.27 2.67.86.84 1.75 1.6 2.65 2.26.46.34 1.08.37 1.25.1l1.06-1.68c.28-.42 1.07-.52 1.35-.52a23.34 23.34 0 0 1 5.36 1.67c.52.24.88 1.34.64 1.94a11.05 11.05 0 0 1-3.5 4.72l-.12.1h-.46c-4.08 0-8.3-1.88-11.6-5.17zm.6-.74l.07.08c3.1 3.1 7.09 4.9 10.92 4.9h.13a10.08 10.08 0 0 0 3.07-4.23c.06-.16-.08-.65-.2-.77a22.88 22.88 0 0 0-4.86-1.55c-.29 0-.58.08-.66.13l-1.01 1.63c-.46.73-1.7.82-2.6.15a24.52 24.52 0 0 1-2.77-2.35c-.89-.9-1.68-1.84-2.37-2.78a2.24 2.24 0 0 1-.43-1.7c.07-.4.29-.72.6-.91l1.66-1.06c.04-.07.11-.47.09-.6a61.52 61.52 0 0 0-1.6-4.97c-.03 0-.36-.12-.62-.12h-.1a10.12 10.12 0 0 0-4.22 3.09c-.04 3.88 1.74 7.9 4.9 11.06zM238 63.23l-4.65-.3a.47.47 0 0 1-.44-.44l-.3-4.66a.47.47 0 0 1 .45-.5c.26-.03.48.18.5.44l.23 3.61 4.91-4.92a.47.47 0 0 1 .67.67l-4.92 4.92 3.61.23a.47.47 0 0 1-.03.95h-.03z"/></defs><g><g transform="translate(-219 -52)"><use fill="#ca202e" xlink:href="#m2sta"/></g></g></svg>