<svg xmlns="http://www.w3.org/2000/svg" xmlns:xlink="http://www.w3.org/1999/xlink" width="52" height="53" viewBox="0 0 52 53"><defs><path id="zlbca" d="M1215.42 2967.06l.02.02-.73.66a24.48 24.48 0 0 1-5.57 3.77c-.12.07-.25.12-.37.18l-.65.3-.58.24-.46.18-.66.24-.4.14a23.43 23.43 0 0 1-2.91.76l-.47.08-.65.11-.55.07-.6.07-.68.06c-.16 0-.32.02-.47.03a23.52 23.52 0 0 1-2.38 0c-.16 0-.31-.02-.47-.03l-.7-.06-.58-.07-.56-.07-.64-.1-.5-.1a21.32 21.32 0 0 1-1.77-.41l-.46-.14a26.5 26.5 0 0 1-.64-.2l-.48-.16-.59-.21-.56-.23-.48-.2-.77-.35c-.08-.05-.17-.08-.25-.12-2.02-1-3.92-2.28-5.62-3.83l-.73-.66.03-.02A25.17 25.17 0 0 1 1174 2949c0-13.79 10.99-25 24.5-25 13.5 0 24.5 11.21 24.5 25 0 7.1-2.92 13.5-7.58 18.06zm-32.57-1.07a25.43 25.43 0 0 1 15.6-5.32c5.72 0 11.11 1.86 15.66 5.36a23.49 23.49 0 0 0 7.26-17.03c0-12.87-10.26-23.33-22.87-23.33-12.6 0-22.87 10.46-22.87 23.33a23.5 23.5 0 0 0 7.22 16.99zm30.01 1.15a23.82 23.82 0 0 0-14.41-4.8 23.83 23.83 0 0 0-14.36 4.76l.24.2c.36.29.73.57 1.11.84l.31.22c.44.3.9.59 1.35.86l.34.2a22.45 22.45 0 0 0 3.36 1.55l.14.05a22.55 22.55 0 0 0 3.53.94l.23.04c.57.1 1.15.18 1.73.23l.28.02a22.73 22.73 0 0 0 3.58 0c.09 0 .18 0 .27-.02a22.08 22.08 0 0 0 5.49-1.21l.12-.04c.55-.2 1.08-.42 1.62-.67l.26-.12c.5-.23 1-.5 1.49-.77l.3-.17c.45-.26.9-.54 1.33-.84l.3-.21c.4-.28.77-.57 1.14-.86l.25-.2zm-15.18-37.3v-1.67c0-.46.37-.84.82-.84.45 0 .82.38.82.84v1.66c0 .46-.37.84-.82.84a.82.82 0 0 1-.82-.84zm20.01 18.33h1.63c.46 0 .82.37.82.83 0 .46-.36.83-.82.83h-1.63a.82.82 0 0 1-.82-.83c0-.46.37-.83.82-.83zm-38.38 1.66h-1.64a.82.82 0 0 1-.81-.83c0-.46.36-.83.81-.83h1.64c.45 0 .81.37.81.83 0 .46-.36.83-.81.83zm28.08-17.79l.81-1.44a.8.8 0 0 1 1.12-.3c.4.22.52.73.3 1.13l-.82 1.44a.81.81 0 0 1-1.11.3.84.84 0 0 1-.3-1.13zm9.85 28.42a.81.81 0 0 1-1.11.3l-1.42-.83a.84.84 0 0 1-.3-1.14.8.8 0 0 1 1.12-.3l1.41.83c.4.23.53.74.3 1.14zm-37.48-22.09a.8.8 0 0 1 1.11-.3l1.42.83c.39.23.52.74.3 1.14a.81.81 0 0 1-1.12.3l-1.41-.83a.84.84 0 0 1-.3-1.14zm7.62-6.97c-.23-.4-.1-.9.3-1.14a.8.8 0 0 1 1.11.3l.82 1.45c.22.4.09.91-.3 1.14a.82.82 0 0 1-1.12-.3zm26.83 8.25c-.23-.4-.1-.9.3-1.14l1.4-.83a.8.8 0 0 1 1.12.3c.23.4.1.91-.3 1.14l-1.4.84a.81.81 0 0 1-1.12-.3zm-32.13 19.89l-1.41.83a.81.81 0 0 1-1.12-.3c-.23-.4-.1-.9.3-1.14l1.41-.83a.8.8 0 0 1 1.12.3c.22.4.09.91-.3 1.14zm14.11-9.12a3.34 3.34 0 0 1-.96-2.35c0-.9.34-1.73.96-2.36a3.3 3.3 0 0 1 4.12-.41l6.85-6.99a.8.8 0 0 1 1.16 0c.32.33.32.85 0 1.18l-6.93 7.06a3.35 3.35 0 0 1-.58 3.87 3.21 3.21 0 0 1-4.62 0zm.68-2.35c0 .44.17.86.47 1.17.62.63 1.7.63 2.31 0a1.67 1.67 0 0 0 0-2.36 1.6 1.6 0 0 0-2.3 0c-.31.32-.48.74-.48 1.19z"/></defs><g><g transform="translate(-1172 -2922)"><use fill="#af5f56" xlink:href="#zlbca"/></g></g></svg>