<svg xmlns="http://www.w3.org/2000/svg" xmlns:xlink="http://www.w3.org/1999/xlink" width="28" height="23" viewBox="0 0 28 23"><defs><path id="oxqda" d="M524.3 3920.42c.44 0 .85.05 1.26.12.84.16 2.1 1.04 2.3 2.59.21 1.55.16 2.59-.99 5.43a27.12 27.12 0 0 1-6.28 8.8c-2.03 1.83-3.24 2.91-4.14 3.41-.27.16-.64.23-1.03.23-.8 0-1.71-.3-2.32-.8-1.04-.88-1.47-1.79-1.98-3.26-.53-1.5-.94-2.74-1.73-5.33-.69-2.26-1-3.72-1.41-4.8-.2-.52-.53-.68-.85-.68-.36 0-.71.2-.88.31-.32.2-1.47.72-1.47.72l-.78-1.03s1.43-1.73 3.24-3.26c1.78-1.5 2.78-2.07 3.61-2.28a3 3 0 0 1 .72-.1c.52 0 1 .2 1.53.73.48.46.74.98 1.05 2.53.32 1.55.74 4.19 1.2 5.95.48 1.76.63 2.38.95 2.95.22.4.45.8.82.8.05 0 .11 0 .17-.03.47-.15.96-.63 1.89-1.9a13.53 13.53 0 0 0 1.78-3.27c.41-1.14.1-2.07-.48-2.53-.3-.25-.79-.4-1.29-.4-.45 0-.92.13-1.27.4.1-1.25.73-2.23 1.2-2.8a7 7 0 0 1 2.83-2.02 6.04 6.04 0 0 1 2.34-.48z"/></defs><g><g transform="translate(-502 -3919)"><use fill="#fff" xlink:href="#oxqda"/></g></g></svg>