<svg xmlns="http://www.w3.org/2000/svg" xmlns:xlink="http://www.w3.org/1999/xlink" width="20" height="21" viewBox="0 0 20 21"><defs><path id="ca4qa" d="M258.15 26c-.64 0-1.15-.53-1.15-1.17V16.5c0-.65.51-1.17 1.15-1.17h1.6v-1.95c0-2.98 2.37-5.4 5.29-5.4s5.3 2.42 5.3 5.4v1.95h1.59c.63 0 1.15.52 1.15 1.17v8.32c0 .64-.52 1.17-1.15 1.17zm-.38-9.5v8.33c0 .21.17.39.38.39h13.78c.21 0 .38-.18.38-.4v-8.31a.39.39 0 0 0-.38-.4h-13.78a.39.39 0 0 0-.38.4zm11.8-3.11a4.58 4.58 0 0 0-4.53-4.62 4.58 4.58 0 0 0-4.53 4.62v1.95h9.06zm-5.68 9.88v-2a2.02 2.02 0 0 1 1.15-3.65 2.02 2.02 0 1 1 1.15 3.65v2zm1.53-.78v-1.67l.2-.11a1.24 1.24 0 0 0-.58-2.31 1.23 1.23 0 1 0-.58 2.31l.2.1v1.68z"/></defs><g><g transform="translate(-255 -6)"><use xlink:href="#ca4qa"/></g></g></svg>